<?xml version="1.0" standalone="no"?>
<!DOCTYPE svg PUBLIC "-//W3C//DTD SVG 20010904//EN"
 "http://www.w3.org/TR/2001/REC-SVG-20010904/DTD/svg10.dtd">
<svg version="1.0" xmlns="http://www.w3.org/2000/svg"
 width="700.000000pt" height="700.000000pt" viewBox="0 0 700.000000 700.000000"
 preserveAspectRatio="xMidYMid meet">
<metadata>
Created by potrace 1.11, written by Peter Selinger 2001-2013
</metadata>
<g transform="translate(0.000000,700.000000) scale(0.100000,-0.100000)"
fill="#000000" stroke="none">
<path d="M0 3500 l0 -3500 3500 0 3500 0 0 3500 0 3500 -3500 0 -3500 0 0
-3500z m5360 2495 c168 -44 312 -163 390 -319 24 -50 46 -99 49 -110 2 -12 6
-411 8 -888 l3 -868 -281 0 -282 0 -348 353 -348 352 65 -99 c155 -235 227
-450 249 -743 l7 -88 -352 350 c-194 193 -334 326 -311 296 249 -322 297 -737
127 -1097 -60 -125 -115 -205 -210 -300 -408 -408 -1055 -414 -1477 -15 -160
152 -45 32 324 -338 l392 -393 -100 6 c-239 15 -488 99 -700 236 -75 48 -51
22 360 -389 l440 -441 147 147 148 148 52 -51 c95 -92 173 -164 178 -164 3 0
339 334 748 743 l743 743 -110 116 c-150 157 -164 148 232 148 l307 0 0 -837
c0 -928 3 -885 -67 -1023 -71 -140 -207 -251 -368 -299 l-70 -21 -1960 2
-1960 3 -95 50 c-134 71 -213 150 -273 275 -25 52 -51 122 -56 154 -7 39 -11
344 -11 878 l0 818 360 0 c204 0 360 -4 360 -9 0 -5 20 -32 45 -59 52 -58 150
-112 202 -112 30 0 34 2 28 21 -27 84 -47 223 -52 354 -7 181 9 316 53 468 4
14 -1 17 -28 17 -74 0 -202 -87 -244 -165 l-19 -35 -352 0 -353 0 -1 798 c-1
438 -1 817 0 842 5 136 72 281 176 385 77 78 199 147 290 163 30 6 830 10
1970 11 1651 1 1928 -1 1975 -14z"/>
<path d="M3331 3923 c-30 -115 -22 -203 29 -311 38 -81 118 -160 206 -203 126
-62 303 -49 418 31 95 66 160 158 186 262 14 54 9 190 -8 231 l-12 27 -404 0
-405 0 -10 -37z"/>
</g>
</svg>
